<svg width="40" height="40" viewBox="0 0 40 40" fill="none" xmlns="http://www.w3.org/2000/svg">
<circle cx="20" cy="20" r="19" stroke="#B8292F" stroke-width="2"/>
<path fill-rule="evenodd" clip-rule="evenodd" d="M20 30.8C25.9647 30.8 30.8 25.9647 30.8 20C30.8 14.0353 25.9647 9.2 20 9.2C14.0353 9.2 9.2 14.0353 9.2 20C9.2 25.9647 14.0353 30.8 20 30.8ZM20 33C27.1797 33 33 27.1797 33 20C33 12.8203 27.1797 7 20 7C12.8203 7 7 12.8203 7 20C7 27.1797 12.8203 33 20 33Z" fill="#B8292F"/>
<path d="M18.9535 7H21.0465C21.2326 7 21.3256 7.0963 21.3256 7.28889V32.7111C21.3256 32.9037 21.2326 33 21.0465 33H18.9535C18.7674 33 18.6744 32.9037 18.6744 32.7111V7.28889C18.6744 7.0963 18.7674 7 18.9535 7Z" fill="#B8292F"/>
<path d="M7.27907 18.6278H32.7209C32.907 18.6278 33 18.7241 33 18.9167V21.0833C33 21.2759 32.907 21.3722 32.7209 21.3722H7.27907C7.09302 21.3722 7 21.2759 7 21.0833V18.9167C7 18.7241 7.09302 18.6278 7.27907 18.6278Z" fill="#B8292F"/>
</svg>
