<svg width="40" height="40" viewBox="0 0 40 40" fill="none" xmlns="http://www.w3.org/2000/svg">
<circle cx="20" cy="20" r="20" fill="#B8292F"/>
<path d="M33.4194 17.7913L21.4856 6.06437L20.6857 5.27792C20.5034 5.09991 20.257 5 20.0001 5C19.7432 5 19.4967 5.09991 19.3144 5.27792L6.58076 17.7913C6.394 17.9742 6.24641 18.192 6.14668 18.4319C6.04696 18.6718 5.99713 18.9289 6.00013 19.1881C6.01248 20.2569 6.9174 21.1102 8.00453 21.1102H9.31712V31H30.683V21.1102H32.0234C32.5515 21.1102 33.0487 20.9067 33.4224 20.5393C33.6065 20.359 33.7523 20.1445 33.8514 19.9084C33.9505 19.6723 34.001 19.4192 34 19.1638C34 18.6476 33.7931 18.1587 33.4194 17.7913ZM21.7296 28.8137H18.2705V22.6193H21.7296V28.8137ZM28.4593 18.9239V28.8137H23.7062V21.8905C23.7062 21.2195 23.1534 20.6759 22.4708 20.6759H17.5293C16.8468 20.6759 16.2939 21.2195 16.2939 21.8905V28.8137H11.5408V18.9239H8.57589L20.0031 7.698L20.7166 8.39942L31.4273 18.9239H28.4593Z" fill="white"/>
</svg>
